# xmcd
#
# Track frame offsets:
#	187
#	11165
#	22630
#	33122
#	45785
#	57010
#	68937
#	78762
#	91935
#	102617
#	114255
#	124585
#	137455
#	149217
#	160092
#	170575
#	183102
#	194910
#	206190
#	220020
#
# Disc length: 3122 seconds
#
# Revision: 0
# Processed by: cddbd v1.4PL0 Copyright (c) Steve Scherf et al.
# Submitted via: dBpowerAMP V4.0
#
DISCID=0b0c3014
DTITLE=Sons of the Pioneers - Country and Western Memories
DYEAR=1900
DGENRE=Western
TTITLE0=Memories Are Made Of This
TTITLE1=Ramona
TTITLE2=Mockin' Bird Hill
TTITLE3=Born To Lose
TTITLE4=Four Walls
TTITLE5=My Heart Cries For You
TTITLE6=Cattle Call Rondolet
TTITLE7=Among My Souvenirs
TTITLE8=Vaya Con Dios
TTITLE9=Memories
TTITLE10=Listen To The Mocking Bird
TTITLE11=Crazy Arms
TTITLE12=Gone
TTITLE13=Song Of The Bandit
TTITLE14=Cold, Cold Heart
TTITLE15=I Still Do
TTITLE16=I'll Hold You In My Heart
TTITLE17=Bonaparte's Retreat
TTITLE18=Left My Gal In The Mountains
TTITLE19=By The River Of The Roses
EXTD=
EXTT0=
EXTT1=
EXTT2=
EXTT3=
EXTT4=
EXTT5=
EXTT6=
EXTT7=
EXTT8=
EXTT9=
EXTT10=
EXTT11=
EXTT12=
EXTT13=
EXTT14=
EXTT15=
EXTT16=
EXTT17=
EXTT18=
EXTT19=
PLAYORDER=
